<svg viewBox="0 0 320 320.05" xmlns="http://www.w3.org/2000/svg" xmlns:xlink="http://www.w3.org/1999/xlink"><radialGradient id="a" cx="129.05" cy="212.62" gradientUnits="userSpaceOnUse" r="269.03"><stop offset="0" stop-color="#e22786"/><stop offset="1" stop-color="#502c85"/></radialGradient><radialGradient id="b" cx="236.32" cy="108.98" r="912.21" xlink:href="#a"/><radialGradient id="c" cx="236.32" cy="108.96" r="912.19" xlink:href="#a"/><radialGradient id="d" cx="120.36" cy="147.39" r="198.61" xlink:href="#a"/><radialGradient id="e" cx="312.43" cy="285.83" r="201.67" xlink:href="#a"/><radialGradient id="f" cx="100.79" cy="94.48" r="558.41" xlink:href="#a"/><radialGradient id="g" cx="114.56" cy="258.28" r="267.42" xlink:href="#a"/><path d="m313.22 156.74a156.88 156.88 0 0 0 -200.55-150.54 8.92 8.92 0 0 0 -6.25 10.8 8.71 8.71 0 0 0 10.83 6 139.4 139.4 0 0 1 166.89 189.6 6.3 6.3 0 0 0 1.3 7l5.7 5.7a4.29 4.29 0 0 0 6.91-1.16 157.61 157.61 0 0 0 15.17-67.4z" fill="url(#a)"/><path d="m27.79 82.89a8.71 8.71 0 0 0 12.06-2.5 140.57 140.57 0 0 1 47.32-44.57 8.71 8.71 0 1 0 -8.68-15.1 157.86 157.86 0 0 0 -53.2 50.11 8.71 8.71 0 0 0 2.5 12.06z" fill="url(#a)"/><path d="m218.42 283.63a2.61 2.61 0 0 0 -2.89-.6h-.09a140.47 140.47 0 0 1 -63.66 13h-.3a8.71 8.71 0 0 0 -8.7 9 8.93 8.93 0 0 0 8.76 8.4c1.65 0 3.32.08 5 .08a157.62 157.62 0 0 0 66.31-14.69h.09a7.06 7.06 0 0 0 3.89-5.26 2.7 2.7 0 0 0 -.76-2.34z" fill="url(#a)"/><path d="m10.22 131.9a8.88 8.88 0 0 0 2 .23 8.71 8.71 0 0 0 8.48-6.76 142.29 142.29 0 0 1 4.61-15.72 8.71 8.71 0 0 0 -16.4-5.88 157.79 157.79 0 0 0 -5.18 17.69 8.71 8.71 0 0 0 6.49 10.44z" fill="url(#a)"/><path d="m119.41 291.14a139.45 139.45 0 0 1 -102-125 8.71 8.71 0 0 0 -17.41 1.1 156.84 156.84 0 0 0 114.8 140.69 8.36 8.36 0 0 0 2.31.32 8.71 8.71 0 0 0 2.3-17.11z" fill="url(#a)"/><g fill="url(#b)"><path d="m286.88 164.31a8.71 8.71 0 0 0 -17.39-1 113.18 113.18 0 0 1 -6.1 30.62 4.55 4.55 0 0 0 1.09 4.7l6.46 6.46a4.58 4.58 0 0 0 7.51-1.6 130.6 130.6 0 0 0 8.43-39.18z"/><path d="m255.1 101.13a8.69 8.69 0 0 0 7.59 4.43 8.59 8.59 0 0 0 4.27-1.13 8.69 8.69 0 0 0 3.3-11.86 130.83 130.83 0 0 0 -22.72-29.45 8.71 8.71 0 1 0 -12.15 12.49 113.37 113.37 0 0 1 19.71 25.52z"/><path d="m264.66 123.37c.79 2.56 1.49 5.19 2.1 7.8a8.71 8.71 0 0 0 17-3.91c-.7-3-1.51-6.06-2.42-9a8.71 8.71 0 1 0 -16.65 5.13z"/><path d="m115.37 51.23a113.52 113.52 0 0 1 101 9.42 8.71 8.71 0 1 0 9.23-14.77 130.94 130.94 0 0 0 -116.54-10.88 8.71 8.71 0 0 0 6.31 16.24z"/><path d="m141.82 269.06c-2.67-.35-5.35-.79-8-1.33a8.71 8.71 0 0 0 -3.46 17.08c3 .61 6.13 1.12 9.2 1.52a8.71 8.71 0 1 0 2.24-17.27z"/><path d="m194.39 263.48a113.22 113.22 0 0 1 -28 6.08 9 9 0 0 0 -8.32 9.3 8.7 8.7 0 0 0 8.68 8.12q.38 0 .75 0a130.61 130.61 0 0 0 36.24-8.36 8.65 8.65 0 0 0 4-3.16 2.21 2.21 0 0 0 -.34-2.78l-8-8a4.81 4.81 0 0 0 -5.01-1.2z"/><path d="m103.5 256.89a113.32 113.32 0 0 1 -59.35-114.63 8.71 8.71 0 0 0 -17.28-2.26 131.6 131.6 0 0 0 -1.07 16.72 130.87 130.87 0 0 0 69.54 115.56 8.71 8.71 0 1 0 8.16-15.39z"/><path d="m38.65 124a8.6 8.6 0 0 0 2.92.51 8.71 8.71 0 0 0 8.21-5.79 112.23 112.23 0 0 1 15-28.49 8.71 8.71 0 1 0 -14.03-10.23 129.47 129.47 0 0 0 -17.38 32.9 8.7 8.7 0 0 0 5.28 11.1z"/></g><path d="m75.3 74.47a8.68 8.68 0 0 0 5.79-2.21c2-1.79 4.1-3.53 6.23-5.18a8.71 8.71 0 0 0 -10.66-13.78c-2.45 1.9-4.86 3.91-7.17 6a8.71 8.71 0 0 0 5.81 15.2z" fill="url(#c)"/><path d="m261 156.82a104.7 104.7 0 0 0 -14.66-53.48 8.71 8.71 0 0 0 -15 8.91 87.13 87.13 0 0 1 10.66 61.07 4.43 4.43 0 0 0 1.19 4l7.18 7.18a4.46 4.46 0 0 0 7.47-2.09 104.31 104.31 0 0 0 3.16-25.59z" fill="url(#d)"/><path d="m77.37 102a8.71 8.71 0 0 0 12.27-1.09 87.13 87.13 0 0 1 114.53-17 8.71 8.71 0 1 0 9.56-14.56 104.55 104.55 0 0 0 -137.45 20.37 8.71 8.71 0 0 0 1.09 12.28z" fill="url(#d)"/><path d="m165.81 243.37c-2.62.28-5.28.44-7.91.49a8.71 8.71 0 0 0 .15 17.42h.15c3.16-.06 6.34-.26 9.48-.59a8.71 8.71 0 0 0 -1.87-17.32z" fill="url(#d)"/><path d="m119.53 235.69a87.24 87.24 0 0 1 -45.75-106.42 8.71 8.71 0 1 0 -16.53-5.49 104.67 104.67 0 0 0 54.89 127.68 8.71 8.71 0 0 0 7.39-15.77z" fill="url(#d)"/><path d="m311.28 280.85a8.65 8.65 0 0 1 -6.16-2.55l-12.25-12.25a8.72 8.72 0 0 1 12.32-12.33l12.25 12.28a8.71 8.71 0 0 1 -6.16 14.87zm-30.73-30.73a8.65 8.65 0 0 1 -6.16-2.56l-6.16-6.15a8.73 8.73 0 0 1 0-12.32 8.72 8.72 0 0 1 12.32 0l6.16 6.16a8.72 8.72 0 0 1 0 12.31 8.63 8.63 0 0 1 -6.16 2.56zm-30.79-30.79a8.72 8.72 0 1 1 6.15-2.55 8.66 8.66 0 0 1 -6.15 2.55zm-24.63-24.64a8.66 8.66 0 0 1 -6.16-2.55l-24.64-24.63a8.72 8.72 0 0 1 0-12.32 8.7 8.7 0 0 1 12.31 0l24.64 24.63a8.71 8.71 0 0 1 -6.15 14.87zm-43.13-43.11a8.62 8.62 0 0 1 -6.15-2.56l-6.16-6.15a8.72 8.72 0 0 1 0-12.32 8.7 8.7 0 0 1 12.31 0l6.16 6.16a8.72 8.72 0 0 1 -6.16 14.87zm-30.79-30.79a8.72 8.72 0 1 1 6.16-2.56 8.63 8.63 0 0 1 -6.15 2.56z" fill="url(#e)"/><path d="m291.69 300.45a8.68 8.68 0 0 1 -6.16-2.55l-18.42-18.42a8.71 8.71 0 0 1 12.32-12.32l18.42 18.42a8.71 8.71 0 0 1 -6.16 14.87zm-43.05-43.05a8.68 8.68 0 0 1 -6.16-2.55l-6.16-6.16a8.71 8.71 0 0 1 12.32-12.32l6.16 6.16a8.71 8.71 0 0 1 -6.16 14.87zm-24.64-24.64a8.7 8.7 0 0 1 -6.16-2.55l-49.27-49.27a8.71 8.71 0 0 1 12.32-12.32l49.27 49.27a8.71 8.71 0 0 1 -6.16 14.87zm-67.74-67.76a8.68 8.68 0 0 1 -6.16-2.55l-24.64-24.64a8.71 8.71 0 0 1 12.32-12.32l24.64 24.64a8.71 8.71 0 0 1 -6.16 14.87z" fill="url(#f)"/><path d="m272.09 320.05a8.65 8.65 0 0 1 -6.16-2.56l-30.73-30.73a8.71 8.71 0 0 1 12.32-12.32l30.73 30.74a8.72 8.72 0 0 1 -6.16 14.87zm-49.21-49.21a8.65 8.65 0 0 1 -6.16-2.56l-36.95-36.95a8.71 8.71 0 0 1 12.32-12.33l36.91 37a8.72 8.72 0 0 1 -6.16 14.87zm-55.43-55.43a8.71 8.71 0 1 1 6.16-2.55 8.7 8.7 0 0 1 -6.16 2.55zm-18.45-18.48a8.65 8.65 0 0 1 -6.16-2.56l-37-36.94a8.71 8.71 0 0 1 6.16-14.87 8.66 8.66 0 0 1 6.16 2.55l36.95 36.95a8.72 8.72 0 0 1 -6.11 14.87z" fill="url(#g)"/></svg>