<svg viewBox="0 0 480 480" xmlns="http://www.w3.org/2000/svg" xmlns:xlink="http://www.w3.org/1999/xlink"><radialGradient id="a" cx="210.17" cy="292.6" gradientUnits="userSpaceOnUse" r="269.03"><stop offset="0" stop-color="#e22786"/><stop offset="1" stop-color="#502c85"/></radialGradient><radialGradient id="b" cx="317.44" cy="188.95" r="912.21" xlink:href="#a"/><radialGradient id="c" cx="317.44" cy="188.94" r="912.19" xlink:href="#a"/><radialGradient id="d" cx="201.47" cy="227.37" r="198.61" xlink:href="#a"/><radialGradient id="e" cx="393.54" cy="365.8" r="201.67" xlink:href="#a"/><radialGradient id="f" cx="181.9" cy="174.46" r="558.41" xlink:href="#a"/><radialGradient id="g" cx="195.67" cy="338.26" r="267.42" xlink:href="#a"/><path d="m0 0h480v480h-480z" fill="#fff"/><path d="m394.34 236.72a156.88 156.88 0 0 0 -200.55-150.54 8.91 8.91 0 0 0 -6.26 10.82 8.71 8.71 0 0 0 10.83 6 139.39 139.39 0 0 1 166.89 189.6 6.3 6.3 0 0 0 1.3 7l5.71 5.7a4.29 4.29 0 0 0 6.9-1.16 157.62 157.62 0 0 0 15.18-67.42z" fill="url(#a)"/><path d="m108.9 162.87a8.71 8.71 0 0 0 12.06-2.5 140.57 140.57 0 0 1 47.32-44.57 8.71 8.71 0 0 0 -8.68-15.1 157.86 157.86 0 0 0 -53.2 50.11 8.71 8.71 0 0 0 2.5 12.06z" fill="url(#a)"/><path d="m299.53 363.61a2.61 2.61 0 0 0 -2.89-.6h-.1a140.45 140.45 0 0 1 -63.66 13h-.3a8.71 8.71 0 0 0 -8.7 9 8.94 8.94 0 0 0 8.77 8.41c1.64.05 3.31.08 5 .08a157.68 157.68 0 0 0 66.31-14.69h.08a7.06 7.06 0 0 0 3.89-5.27 2.69 2.69 0 0 0 -.76-2.33z" fill="url(#a)"/><path d="m91.34 211.88a8.72 8.72 0 0 0 10.44-6.53 140.11 140.11 0 0 1 4.6-15.72 8.71 8.71 0 1 0 -16.38-5.88 156.61 156.61 0 0 0 -5.19 17.69 8.71 8.71 0 0 0 6.53 10.44z" fill="url(#a)"/><path d="m200.52 371.11a139.42 139.42 0 0 1 -102-125 8.71 8.71 0 1 0 -17.38 1.15 156.84 156.84 0 0 0 114.77 140.65 8.81 8.81 0 0 0 2.31.32 8.72 8.72 0 0 0 2.3-17.12z" fill="url(#a)"/><g fill="url(#b)"><path d="m368 244.29a8.71 8.71 0 1 0 -17.39-1 112.8 112.8 0 0 1 -6.1 30.62 4.53 4.53 0 0 0 1.09 4.69l6.46 6.47a4.58 4.58 0 0 0 7.51-1.61 130.23 130.23 0 0 0 8.43-39.17z"/><path d="m336.21 181.11a8.71 8.71 0 0 0 15.17-8.57 131 131 0 0 0 -22.73-29.44 8.71 8.71 0 1 0 -12.15 12.48 113.65 113.65 0 0 1 19.71 25.53z"/><path d="m345.77 203.34c.79 2.56 1.5 5.19 2.1 7.81a8.71 8.71 0 0 0 8.48 6.75 8.88 8.88 0 0 0 2-.22 8.71 8.71 0 0 0 6.52-10.45c-.7-3-1.51-6-2.42-9a8.71 8.71 0 0 0 -16.65 5.12z"/><path d="m196.48 131.21a113.54 113.54 0 0 1 101 9.42 8.61 8.61 0 0 0 4.6 1.32 8.71 8.71 0 0 0 4.62-16.1 131 131 0 0 0 -116.52-10.85 8.71 8.71 0 0 0 6.3 16.24z"/><path d="m222.93 349c-2.66-.34-5.35-.79-8-1.32a8.71 8.71 0 0 0 -3.47 17.07c3 .62 6.13 1.13 9.2 1.53a8.71 8.71 0 1 0 2.27-17.28z"/><path d="m275.5 343.45a113.14 113.14 0 0 1 -28 6.09 9 9 0 0 0 -8.32 9.29 8.72 8.72 0 0 0 8.68 8.13h.75a130.54 130.54 0 0 0 36.24-8.37 8.6 8.6 0 0 0 4-3.16 2.22 2.22 0 0 0 -.35-2.78l-8-8a4.84 4.84 0 0 0 -5-1.2z"/><path d="m184.61 336.87a113.44 113.44 0 0 1 -60.28-100.13 115 115 0 0 1 .93-14.5 8.71 8.71 0 1 0 -17.26-2.24 131.48 131.48 0 0 0 -1.07 16.72 130.82 130.82 0 0 0 69.54 115.52 8.71 8.71 0 1 0 8.15-15.39z"/><path d="m119.77 204a8.52 8.52 0 0 0 2.92.51 8.71 8.71 0 0 0 8.2-5.79 112.55 112.55 0 0 1 15.05-28.49 8.71 8.71 0 0 0 -14.08-10.26 129.81 129.81 0 0 0 -17.38 32.9 8.71 8.71 0 0 0 5.29 11.13z"/></g><path d="m156.41 154.45a8.66 8.66 0 0 0 5.8-2.22c2-1.78 4.09-3.53 6.22-5.17a8.71 8.71 0 0 0 -10.65-13.78c-2.46 1.9-4.87 3.9-7.18 6a8.71 8.71 0 0 0 5.81 15.2z" fill="url(#c)"/><path d="m342.08 236.8a104.67 104.67 0 0 0 -14.66-53.48 8.71 8.71 0 0 0 -15 8.91 87.18 87.18 0 0 1 10.62 61.07 4.41 4.41 0 0 0 1.19 4l7.18 7.18a4.46 4.46 0 0 0 7.47-2.08 104.31 104.31 0 0 0 3.2-25.6z" fill="url(#d)"/><path d="m158.48 182a8.7 8.7 0 0 0 12.27-1.1 87.11 87.11 0 0 1 114.53-17 8.71 8.71 0 0 0 9.57-14.56 104.53 104.53 0 0 0 -137.46 20.36 8.71 8.71 0 0 0 1.09 12.3z" fill="url(#d)"/><path d="m246.92 323.34c-2.61.29-5.27.45-7.9.5a8.71 8.71 0 0 0 .14 17.41h.16c3.15-.05 6.34-.25 9.47-.59a8.71 8.71 0 1 0 -1.87-17.32z" fill="url(#d)"/><path d="m200.64 315.66a87.22 87.22 0 0 1 -45.75-106.41 8.71 8.71 0 1 0 -16.53-5.49 104.7 104.7 0 0 0 54.89 127.68 8.71 8.71 0 0 0 7.39-15.78z" fill="url(#d)"/><path d="m392.39 360.83a8.66 8.66 0 0 1 -6.15-2.55l-12.24-12.28a8.71 8.71 0 0 1 12.3-12.3l12.25 12.3a8.71 8.71 0 0 1 -6.16 14.87zm-30.72-30.74a8.66 8.66 0 0 1 -6.17-2.55l-6.16-6.16a8.71 8.71 0 0 1 12.33-12.31l6.15 6.16a8.72 8.72 0 0 1 0 12.31 8.61 8.61 0 0 1 -6.15 2.55zm-30.8-30.79a8.71 8.71 0 1 1 6.16-2.55 8.64 8.64 0 0 1 -6.16 2.55zm-24.63-24.63a8.63 8.63 0 0 1 -6.16-2.56l-24.64-24.63a8.71 8.71 0 1 1 12.32-12.31l24.64 24.63a8.72 8.72 0 0 1 -6.16 14.87zm-43.11-43.12a8.62 8.62 0 0 1 -6.13-2.55l-6.16-6.16a8.71 8.71 0 1 1 12.32-12.31l6.15 6.15a8.71 8.71 0 0 1 -6.15 14.87zm-30.8-30.79a8.71 8.71 0 1 1 6.16-2.55 8.64 8.64 0 0 1 -6.16 2.55z" fill="url(#e)"/><path d="m372.8 380.43a8.68 8.68 0 0 1 -6.16-2.55l-18.41-18.42a8.71 8.71 0 1 1 12.31-12.32l18.46 18.42a8.71 8.71 0 0 1 -6.16 14.87zm-43.05-43.06a8.68 8.68 0 0 1 -6.16-2.55l-6.16-6.15a8.71 8.71 0 0 1 12.32-12.32l6.16 6.16a8.71 8.71 0 0 1 -6.16 14.86zm-24.63-24.63a8.68 8.68 0 0 1 -6.16-2.55l-49.27-49.27a8.71 8.71 0 1 1 12.31-12.32l49.27 49.27a8.71 8.71 0 0 1 -6.15 14.87zm-67.75-67.74a8.68 8.68 0 0 1 -6.16-2.55l-24.63-24.63a8.71 8.71 0 0 1 12.31-12.32l24.64 24.64a8.71 8.71 0 0 1 -6.16 14.86z" fill="url(#f)"/><path d="m353.2 400a8.65 8.65 0 0 1 -6.16-2.55l-30.72-30.74a8.7 8.7 0 1 1 12.31-12.31l30.74 30.74a8.71 8.71 0 0 1 -6.17 14.86zm-49.2-49.19a8.65 8.65 0 0 1 -6.16-2.55l-36.94-36.95a8.71 8.71 0 1 1 12.3-12.31l36.95 37a8.71 8.71 0 0 1 -6.15 14.81zm-55.43-55.42a8.72 8.72 0 1 1 6.16-2.56 8.62 8.62 0 0 1 -6.17 2.56zm-18.48-18.49a8.64 8.64 0 0 1 -6.16-2.55l-37-37a8.72 8.72 0 0 1 0-12.31 8.7 8.7 0 0 1 12.31 0l37 37a8.71 8.71 0 0 1 -6.16 14.86z" fill="url(#g)"/></svg>