<svg viewBox="0 0 320 319.67" xmlns="http://www.w3.org/2000/svg" xmlns:xlink="http://www.w3.org/1999/xlink"><linearGradient id="a" gradientUnits="userSpaceOnUse" x1="160" x2="160" y2="319.67"><stop offset="0" stop-color="#e22786"/><stop offset="1" stop-color="#502c85"/></linearGradient><path d="m308.05 250-10.62-10.6a159.45 159.45 0 0 0 -96-233.75c-84.74-23.16-172.57 26.98-195.72 111.78a159.39 159.39 0 0 0 111.77 195.77 160 160 0 0 0 42.25 5.71 157.92 157.92 0 0 0 68.94-15.91l-65.85-65.85a78.24 78.24 0 0 1 -23.82-2.67 77.82 77.82 0 1 1 96.24-57.31l-47.58-47.56a40.81 40.81 0 0 0 -57.71 57.71l120.41 120.4a40.81 40.81 0 0 0 57.69-57.72zm-270.59-140.26a131.68 131.68 0 0 1 10.16-20 12.24 12.24 0 0 1 20.81 12.9 106.71 106.71 0 0 0 -8.27 16.31 12.27 12.27 0 0 1 -13 7.54 12.54 12.54 0 0 1 -2.94-.78 12.24 12.24 0 0 1 -6.76-15.97zm96.64 166.77a12.24 12.24 0 0 1 13.53-10.8 106.25 106.25 0 0 0 18.27.49 12.24 12.24 0 1 1 1.46 24.43 130.82 130.82 0 0 1 -22.47-.59h-.29a12.24 12.24 0 0 1 -10.5-13.53zm-18.17-19.41a12.25 12.25 0 0 1 -6.62 23.33 11.83 11.83 0 0 1 -3.32-.95 131.88 131.88 0 0 1 -77.13-103.56 12.24 12.24 0 1 1 24.29-3.11 107.31 107.31 0 0 0 62.78 84.29zm175.21-101.38a131.91 131.91 0 0 1 -1.17 21.2c-.06.41-.11.82-.17 1.22a12.25 12.25 0 0 1 -13.8 10.37h-.12a12.24 12.24 0 0 1 -10.34-13.88l.14-1a107 107 0 0 0 1-17.25 12.24 12.24 0 0 1 24.48-.62zm-163.34-98.95a108.42 108.42 0 0 0 -17 6.89 12 12 0 0 1 -7.19 1.23 12.24 12.24 0 0 1 -3.92-23 133 133 0 0 1 20.8-8.47 12.25 12.25 0 0 1 7.27 23.39zm46.11-3.77a107.62 107.62 0 0 0 -13.65-1 12.25 12.25 0 0 1 .19-24.49 133 133 0 0 1 16.79 1.22 131 131 0 0 1 95.28 62.93 12.24 12.24 0 0 1 -21 12.54 106.66 106.66 0 0 0 -77.61-51.2zm8 128.59a12.24 12.24 0 0 1 -17.32 0l-14.42-14.43a12.24 12.24 0 0 1 17.31-17.31l14.43 14.43a12.26 12.26 0 0 1 -.04 17.26zm106 106a12.26 12.26 0 0 1 -17.32 0l-80-80a12.24 12.24 0 0 1 17.31-17.31l80 80a12.24 12.24 0 0 1 -.05 17.25z" fill="url(#a)"/></svg>