<svg xmlns="http://www.w3.org/2000/svg" viewBox="0 0 1430.22 372"><defs><style>.cls-1{fill:#fff;}</style></defs><g id="Layer_2" data-name="Layer 2"><g id="Layer_1-2" data-name="Layer 1"><path class="cls-1" d="M1252.05,269.65c-3.83,3.17-9.67,5.35-14.31,2.58-4.12-3.06-4.13-8.83-3.88-13.47s3.42-9.64,8.41-10.07a13.06,13.06,0,0,1,1.65-.11c2.82.09,6.14.44,8.25,2.32C1252.09,257.13,1252.33,263.51,1252.05,269.65Zm91.38-21.37h0a9.1,9.1,0,0,0-8.53,4.52,20.77,20.77,0,0,0-.62,15.06c1.64,6.07,10,8,14.65,4.18,4.1-3.67,4.36-9.84,3.55-14.93C1352.21,252.46,1348.21,248.19,1343.43,248.28ZM1284.81,260v-.33c-4.48.53-9.2.13-13.44,2-4.54,1.33-5.53,8.29-1.59,10.85,4.86,2.51,10.81.52,14.79-2.77C1285.11,266.61,1284.67,263.25,1284.81,260Zm-142.24-11.75h0a9.1,9.1,0,0,0-8.53,4.52,20.77,20.77,0,0,0-.62,15.06c1.64,6.07,10,8,14.65,4.18,4.09-3.67,4.36-9.84,3.55-14.93C1151.36,252.46,1147.35,248.19,1142.57,248.28ZM1430.22,186c0,102.72-83.28,186-186,186-92,0-168.35-66.76-183.33-154.47h.11a31.94,31.94,0,0,0,0-63.87C1076.33,66.36,1152.52,0,1244.22,0,1346.94,0,1430.22,83.27,1430.22,186Zm-226.69,21.59H1254V192.21h-31.52V173H1250V157.57h-27.53V138.84h29.59V123.4h-48.55Zm-95,0h17.91V161.33q0-8.93-.47-13.62h.23a75.54,75.54,0,0,0,4.23,7l34.69,52.9h19.14V123.4h-17.91V170a92.21,92.21,0,0,0,.47,11.56h-.23l-4.23-6.87L1129,123.4h-20.43Zm17.52,38c-3.06.25-6.18,0-9.26.11-.15-3.1,0-7.39,3.38-8.73,2.64-1,5.58-.64,8.26,0-.26-1.22.88-3.15-.49-3.82a30.45,30.45,0,0,0-5.39-.35h0a9.31,9.31,0,0,0-9.57,8.26,27.57,27.57,0,0,0-.21,4.54c-1.19.43-2.87-.6-3.75.4.27,1.06-.71,3,1.08,3.05.92.09,2.63-.56,2.76,1-.24,7.51,0,15.09-.09,22.64.39,1.07-.83,3.78.69,3.68,1.11-.12,3,.86,3.49-.51V249.07h9.49C1126.22,248,1127.18,246.27,1126.06,245.64Zm29.53,9.52a13.28,13.28,0,0,0-12.45-10.29c.18,0-.8-.05-.58,0a13.33,13.33,0,0,0-13.88,10.7c-1.49,6.19-.79,13.58,3.85,18.32,5.76,5.27,16.08,4.85,20.7-1.76C1156.76,267.24,1156.94,260.79,1155.59,255.16Zm32.79,18.31V245.81c-1.38.27-3.13-.78-4.16.3-.07,7.74,0,15.48,0,23.22-3.8,3.05-9.19,5.53-14,3.35-3.53-2.18-3.14-6.93-3.19-10.52V245.81a26.42,26.42,0,0,1-3-.17h0c-2-.23-1,2.29-1.19,3.4.11,6.54-.21,13.16.15,19.63.43,4,3.18,8,7.41,8.55,4.67,1,9.56-1.15,13-4.3,1.35-.07.7,2,.81,2.78,0,1.59,2.16.71,3.12.78C1189.11,276.86,1188.14,274.63,1188.38,273.47Zm34.18-21c-.7-4.18-4.43-7.77-8.87-7.62-.51,0-1,0-1.53,0h0c-4,.2-7.6,2.46-10.58,5-.51-1.37.58-3.15-.43-4.22-1.3.31-3.26-.67-4,.84.36,8.21,0,16.5.16,24.73.21,1.62-.42,4.14.29,5.21,1.27-.19,3.11.85,3.88-.39,0-7.71,0-15.41,0-23.11,3.86-3.08,9.46-5.68,14.25-3.15,3.25,2.15,2.8,6.63,2.94,10v16.66c1.37-.28,3.12.77,4.15-.31C1222.74,268.29,1223.24,260.35,1222.56,252.5Zm34,23.27c-.36-8.2,0-16.49-.16-24.73V233.23a26.42,26.42,0,0,1-3-.17h0c-2-.23-.95,2.29-1.19,3.41-.11,3.41.22,6.94-.15,10.28-1.37.71-2.62-1.15-4-1.18-6-2.15-13.54.38-16.35,6.29-3.19,6.08-2.88,13.55-.13,19.72a11,11,0,0,0,11.78,5.71c3.38-.51,6.32-2.48,8.8-4.73.53,1.29-.59,3.09.44,4.08C1253.85,276.3,1255.78,277.28,1256.51,275.77Zm32.45-.43c-.16-7.74.37-15.52-.3-23.23-1-4.34-5.4-6.81-9.57-7a33.81,33.81,0,0,0-5.32-.13h0a44.14,44.14,0,0,0-7.9,1.29c.22,1.38-.58,3,.18,4.16,5.17-1.75,11.27-3.16,16.37-.51,2.09,1.44,2.65,4.22,2.37,6.6-6.51.66-13.9,0-19.24,4.46-4.76,4.64-2.74,14,3.84,15.84,5.13,1.72,10.67-.46,14.68-3.77,1.35,0,.53,2,.7,2.8-.1,1.17,1.54.25,2.22.68C1287.94,276.83,1289.43,276.67,1289,275.34Zm23.76-29.7c-3.53.25-7.12,0-10.68.1v-9.13a26.45,26.45,0,0,1-3-.16h0c-2-.24-1,2.28-1.19,3.4-.19,1.86.35,4-.22,5.69-1,.87-2.75-.53-3.46.48,0,1.19-.46,3.68,1.56,3.18,1-.57,2.5-.07,2.2,1.28-.18,4.42,0,8.88-.12,13.32.17,3.91-.4,8.71,3.06,11.46s8.24,1.95,12.22,1.13c-.21-1.16.53-2.59-.09-3.57-3.08,1-7.35,1.7-9.63-1.18-2.21-3.34-1-7.59-1.34-11.29V249.07h11.07C1312.87,248,1313.84,246.27,1312.72,245.64Zm9.56.17a26.42,26.42,0,0,1-3-.17h0c-2-.23-1,2.29-1.19,3.4v27.43c1.38-.27,3.13.78,4.15-.3C1322.32,266.05,1322.26,255.93,1322.28,245.81Zm0-11c-1.27.23-2.53-.21-3.77-.09-1.63.28-.37,2.63-.77,3.74.24,1.61,3.38.3,4.8.72C1322.36,237.77,1323.24,236,1322.29,234.81Zm4.34-111.41h-66.92v15.44h23.89v68.75h19V138.84h24ZM1356.08,254a13.09,13.09,0,0,0-12.36-9.14c-.51,0-1,0-1.51,0h0c-6.55-.06-12.28,5.48-12.93,11.83-1.15,6.06-.24,13.22,4.59,17.59,6.13,5.13,16.8,4,20.88-3.15C1357.71,266,1357.88,259.55,1356.08,254Zm33.35,22.16c-.11-7.88.39-15.82-.29-23.67-.69-4.19-4.47-7.79-8.87-7.62-.51,0-1,0-1.53,0h0c-4,.2-7.6,2.46-10.58,5-.52-1.37.58-3.15-.43-4.22-1.3.31-3.26-.67-4,.84.36,8.21,0,16.5.15,24.73.22,1.62-.41,4.14.3,5.21,1.27-.19,3.11.85,3.88-.39,0-7.71,0-15.41,0-23.11,3.86-3.08,9.46-5.68,14.25-3.15,3.25,2.15,2.8,6.63,2.94,10v16.66C1386.65,276.2,1388.4,277.25,1389.43,276.17ZM1060,162.67a23.5,23.5,0,1,0,23.5,23.5A23.5,23.5,0,0,0,1060,162.67ZM359.74,238a51.66,51.66,0,0,1-26.9,15.86c-27.4,6.78-54.84-8.61-63-34.24-6.42-20.3-6.22-40.25,2.46-59.62,8.21-18.28,23.3-29.15,43.27-33.56a91.67,91.67,0,0,1,42.41.85c0-18.74,0-37.12,0-55.5a49.44,49.44,0,0,1,.26-5.17c.38-3.2,2.14-5.14,5.58-5.39,4.35-.34,8.69-.72,13-.94,3.34-.16,5.12,1.51,5.39,4.71.12,1.57.28,3.15.28,4.71V241.62c0,8.84-1.48,10.37-10.46,11-1.14.09-2.24.12-3.36.24-7.17.72-9-.9-9-7.95V238M358,184.79c0-10.86-.15-21.7.11-32.55.1-3.7-1.19-5.72-4.75-6.16-8.29-1-16.63-2.93-24.82-2.44-17.73,1-30.34,10.4-35.91,28.46-3.37,10.83-3.14,22.1-.82,33,2.16,10.1,6.72,19.34,16.14,25.31,12,7.6,31.06,5.91,43-3.2,5.13-3.91,7.75-8,7.27-14.64-.68-9.22-.2-18.53-.2-27.8M23.93,190.37c-.29,24.93,14.67,43,41.2,44.89,13.45,1,26.32-1.26,39-5.18,5-1.53,7.35.09,7.55,5.13.3,8.32-1.47,10.74-9.47,13.59-21.68,7.71-43.39,9.23-65.19.52C15.79,240.81,4.88,224.5,1.36,203.24c-2.48-14.82-1.76-29.59,3.79-43.89,7.89-20.29,29.28-34.61,51.7-34.91,11-.14,21.56.79,31.08,6.79,12,7.61,18.88,18.55,21.35,32.07a117.33,117.33,0,0,1,1.79,17.22c.21,7.78-2.11,9.83-10,9.85Zm.89-17.13h61.8c2.11-14.62-9.11-30.53-25.27-31.78-23.83-1.83-36.06,15.3-36.53,31.78m135-32.1c12.18-12.49,26.13-17.33,42.34-16.61,22.93,1,38.26,14.28,41.13,36.13,1.89,14.26,1.3,28.84,1.55,43.27.23,13.36.09,26.75,0,40.11,0,7.18-1.54,8.59-8.77,8.63h-5.84c-7.94,0-9.77-1.77-9.81-9.4-.05-23.28.14-46.57-.29-69.85-.23-11.77-3.58-22.34-16.53-27.14a32.26,32.26,0,0,0-21.25-.28,61.94,61.94,0,0,0-8.1,3.09c-8.74,4-13.57,9.35-13.07,20.23,1.11,24.33.36,48.76.36,73.14,0,8.82-1.4,10.19-10.33,10.21-14.07,0-14.07,0-14.07-13.61q0-51.23,0-102.45c0-7.13,1.35-8.85,8.55-9.92a42.83,42.83,0,0,1,9.2-.21c3.72.21,4.6,3.06,4.88,6,.25,2.45.05,4.94.05,8.67m380.77.07c12.49-12.61,26.72-17.59,43.3-16.69,22.19,1.2,38.59,14.82,40.07,35.43,2,28.19,1.62,56.51,2,84.79.1,6.22-2.14,7.87-8.67,7.92-1.67,0-3.28,0-4.89,0-9.62,0-10.76-1.1-10.76-10.23,0-17.94.17-35.87-.06-53.81a191,191,0,0,0-1.54-22.54c-2.21-16.63-16.42-23.84-32.45-21-8.18,1.45-15.13,5.07-21.56,10a8.35,8.35,0,0,0-3.73,7.52c.14,26.6.09,53.18.07,79.77,0,8.94-1.45,10.32-10.7,10.34-13.42,0-13.53-.1-13.53-13.2V137c0-8.06,1.7-9.86,10-10.55,11.28-1,12.27-.12,12.41,10.8,0,.9,0,1.81,0,3.92M492,189.69q0,26.69,0,53.37c0,8.06-1.62,9.6-9.92,9.62-14.31,0-14.33,0-14.33-13.91q0-50,0-100.09c0-8.18,1.71-10,10-10.34.82,0,1.63-.09,2.42-.19,10.3-1.47,11.86-.16,11.86,10.08ZM479.9,70c-9.8.22-15.87,5.81-16,15.2-.09,9.09,6.43,15.21,15.86,15.39S496,94.13,496,85c.68-7.73-5.91-15.27-16.06-15m-40.78,121.7c0,18.7.58,37.42-.19,56.1-.77,19.46-7.36,37.07-22,51.14-3.57,3.43-7.06,6.95-10.79,10.21-4.14,3.6-7,3.39-10.9-.3-8.56-8.15-8.63-9.28-.36-17.82,9-9.28,16.12-19.57,18.64-32.29a69,69,0,0,0,1.46-13c.12-35.7.09-71.42.1-107.13,0-8,1.79-9.77,10.16-10.19.65,0,1.3-.06,1.95-.13,11.06-1.43,12.2-.41,12.2,10.6v52.84ZM427.58,69.84c-8.86-.41-16.39,6.67-16.35,15,0,9.12,6.76,15.7,16.14,15.69,9.17-.06,15.85-6.44,15.85-15.3.95-8.29-5.91-15-15.64-15.43M836.5,21.91H823V350.09h13.5Z"/></g></g></svg>