<?xml version="1.0" encoding="utf-8"?>
<svg version="1.1" xmlns="http://www.w3.org/2000/svg" xmlns:xlink="http://www.w3.org/1999/xlink" viewBox="0 0 960 960"
  style="background: #222">
  <style type="text/css">
    .logo {
      fill: white;
    }

    .c {
      stroke: url(#rg-blue);
      fill: none;
      stroke-width: 30;
      stroke-linecap: round;
      stroke-miterlimit: 10;
    }

    .c-0 {
      stroke-dasharray: 27, 180, 90, 90;
    }

    .c-1 {
      stroke-dasharray: 18, 50, 45, 81;
    }

    .c-2 {
      stroke-dasharray: 90, 162, 144, 180, 90;
    }

    .c-3 {
      stroke-dasharray: 71, 150, 241, 100, 268;
    }

    .c-4 {
      stroke-dasharray: 68, 60, 189, 180, 90;
    }

    .c-5 {
      stroke-dasharray: 77, 93, 96;
    }

    .c-6 {
      stroke-dasharray: 36, 109, 117, 81, 189;
    }

    .c-7 {
      stroke-dasharray: 60, 200, 40;
    }

    .c--long-1 {
      stroke-dasharray: 300, 150, 400, 200;
    }

    .c--long-2 {
      stroke-dasharray: 250, 150, 300, 120;
    }

    .c--long-3 {
      stroke-dasharray: 50, 80, 80, 50;
    }

    .c.c--orange {
      stroke: url(#rg-orange);
    }

    .c.c--blue {
      stroke: url(#rg-blue);
    }

    .c.c--white {
      stroke: url(#rg-white);
    }

    .c.c--purple {
      stroke: url(#rg-purple);
    }

    .c--20 {
      opacity: .1;
    }

    .c--40 {
      opacity: .3;
    }

    .c--60 {
      opacity: .6;
    }

    .c--80 {
      opacity: .8;
    }

    @keyframes spin {
      to {
        transform: rotate(1turn);
      }
    }
  </style>


  <linearGradient id="rg-blue">
    <stop offset="0%" stop-color="#6381FF" />
    <stop offset="100%" stop-color="#20F4C6" />
  </linearGradient>

  <linearGradient id="rg-orange">
    <stop offset="0%" stop-color="#F07F05" />
    <stop offset="100%" stop-color="#E9D11A" />
  </linearGradient>

  <linearGradient id="rg-purple">
    <stop offset="0%" stop-color="#502C85" />
    <stop offset="100%" stop-color="#E22786" />
  </linearGradient>

  <linearGradient id="rg-white">
    <stop offset="0%" stop-color="#888" />
    <stop offset="100%" stop-color="#eee" />
  </linearGradient>


  <g transform="translate(800 600)" class="wrapper">

    <circle id="circ-2" cx="0" cy="0" r="200" class="c c-6 c--20 c--white">
      <animateTransform attributeName="transform" type="rotate" from="0 0 0" to="360 0 0" dur="45s"
        repeatCount="indefinite" />
    </circle>

    <circle id="circ-3" cx="0" cy="0" r="250" class="c c-5 c--40">
      <animateTransform attributeName="transform" type="rotate" from="360 0 0" to="0 0 0" dur="30s"
        repeatCount="indefinite" />
    </circle>
    <circle id="circ-4" cx="0" cy="0" r="300" class="c c-4 c--60 c--white">
      <animateTransform attributeName="transform" type="rotate" from="0 0 0" to="360 0 0" dur="59s"
        repeatCount="indefinite" />
    </circle>
    <circle id="circ-5" cx="0" cy="0" r="350" class="c c-7 c--80">
      <animateTransform attributeName="transform" type="rotate" from="0 0 0" to="360 0 0" dur="78s"
        repeatCount="indefinite" />
    </circle>
    <circle id="circ-6" cx="0" cy="0" r="400" class="c c-0 c--white">
      <animateTransform attributeName="transform" type="rotate" from="360 0 0" to="0 0 0" dur="93s"
        repeatCount="indefinite" />
    </circle>
    <circle id="circ-7" cx="0" cy="0" r="450" class="c c-0">
      <animateTransform attributeName="transform" type="rotate" from="0 0 0" to="360 0 0" dur="97s"
        repeatCount="indefinite" />
    </circle>
    <circle id="circ-0" cx="0" cy="0" r="500" class="c c-4">
      <animateTransform attributeName="transform" type="rotate" from="0 0 0" to="360 0 0" dur="83s"
        repeatCount="indefinite" />
    </circle>
    <circle id="circ-1" cx="0" cy="0" r="550" class="c c-6">
      <animateTransform attributeName="transform" type="rotate" from="0 0 0" to="360 0 0" dur="65s"
        repeatCount="indefinite" />
    </circle>
    <circle id="circ-2" cx="0" cy="0" r="600" class="c c-3 c--orange">
      <animateTransform attributeName="transform" type="rotate" from="360 0 0" to="0 0 0" dur="55s"
        repeatCount="indefinite" />
    </circle>
    <circle id="circ-3" cx="0" cy="0" r="650" class="c c-1">
      <animateTransform attributeName="transform" type="rotate" from="0 0 0" to="360 0 0" dur="72s"
        repeatCount="indefinite" />
    </circle>
    <circle id="circ-4" cx="0" cy="0" r="700" class="c c-2 c--80 c--white">
      <animateTransform attributeName="transform" type="rotate" from="0 0 0" to="360 0 0" dur="45s"
        repeatCount="indefinite" />
    </circle>
    <circle id="circ-5" cx="0" cy="0" r="750" class="c c-6 c--60 c--long-3">
      <animateTransform attributeName="transform" type="rotate" from="0 0 0" to="360 0 0" dur="99s"
        repeatCount="indefinite" />
    </circle>
    <circle id="circ-6" cx="0" cy="0" r="800" class="c c-7 c--40 c--long-2">
      <animateTransform attributeName="transform" type="rotate" from="360 0 0" to="0 0 0" dur="52s"
        repeatCount="indefinite" />
    </circle>
    <circle id="circ-7" cx="0" cy="0" r="850" class="c c-0 c--20 c--long-1">
      <animateTransform attributeName="transform" type="rotate" from="0 0 0" to="360 0 0" dur="80s"
        repeatCount="indefinite" />
    </circle>


  </g>

  <g transform="translate(60 460)">

    <path class="logo" d="M483.7,8.6v24.1h-29.1v85h-30.3v-85h-28.8V8.6H483.7z M522.3,8.6v109.1h-30.3V8.6H522.3z M642.7,8.6
	l-37.6,109.1h-38.9L528.5,8.6H561l24.8,78.8l24.6-78.8H642.7z M676.3,32.9v17.8h34.8v23.1h-34.8v19.7h39.5v24.3H646V8.6h69.8v24.3
	H676.3z M55.3,117.7L33.6,77.4h-3.3v40.2H0V8.6h47.8c8.8,0,16.2,1.5,22.3,4.6c6.1,3,10.7,7.2,13.8,12.5c3.1,5.3,4.6,11.3,4.6,17.9
	c0,7.4-2,14-6.1,19.6c-4.1,5.6-10,9.6-17.9,12l24.6,42.6H55.3z M30.3,56.7h15c4.1,0,7.2-1,9.3-2.9c2.1-2,3.1-4.8,3.1-8.5
	c0-3.5-1.1-6.3-3.2-8.3c-2.1-2-5.2-3-9.2-3h-15V56.7z M126.5,32.9v17.8h34.8v23.1h-34.8v19.7h39.5v24.3H96.1V8.6h69.8v24.3H126.5z
	 M246.9,99.9h-38.7l-5.9,17.8h-31.9L210.2,8.6h35l39.6,109.1h-32L246.9,99.9z M239.3,76.7l-11.8-35.3l-11.6,35.3H239.3z M393.1,96.5
	l-4.1-4.1c2.6-4.5,4.7-9.5,6.1-14.7c4.3-15.9,2.2-32.5-5.9-46.7C381.1,16.8,367.8,6.5,352,2.2c-32.7-8.9-66.6,10.4-75.6,43.1
	c-4.3,15.9-2.2,32.4,5.9,46.7c8.1,14.3,21.4,24.5,37.2,28.9c5.4,1.5,10.9,2.2,16.3,2.2c9.2,0,18.2-2.1,26.6-6.1l-25.4-25.4
	c-3.1,0.1-6.2-0.2-9.2-1c-7.7-2.1-14.2-7.1-18.2-14.1c-4-7-5-15.1-2.9-22.8c3.6-13.3,15.8-22.1,29-22.1c2.6,0,5.3,0.3,7.9,1.1
	c7.7,2.1,14.2,7.1,18.2,14.1c3.8,6.6,4.9,14.3,3.2,21.7L346.6,50c-6.2-6.2-16.1-6.2-22.3,0c-6.2,6.2-6.2,16.1,0,22.3l46.5,46.5
	c3.1,3.1,7.1,4.6,11.1,4.6s8.1-1.5,11.1-4.6C399.3,112.6,399.3,102.7,393.1,96.5z M288.7,42.4c1.1-2.7,2.4-5.3,3.9-7.7
	c1.4-2.2,4.3-2.9,6.5-1.5c2.2,1.4,2.9,4.3,1.5,6.5c-1.2,2-2.3,4.1-3.2,6.3c-0.8,2-2.9,3.2-5,2.9c-0.4-0.1-0.8-0.2-1.1-0.3
	C288.8,47.5,287.7,44.8,288.7,42.4z M326,106.7c0.3-2.6,2.6-4.5,5.2-4.2c2.3,0.3,4.7,0.3,7.1,0.2c2.6-0.2,4.8,1.8,5,4.4
	c0.2,2.6-1.8,4.8-4.4,5c-2.9,0.2-5.8,0.1-8.7-0.2c0,0-0.1,0-0.1,0C327.5,111.6,325.7,109.3,326,106.7z M319,99.2
	c2.4,1.1,3.5,3.9,2.4,6.2c-0.9,2-2.9,3-5,2.8c-0.4-0.1-0.9-0.2-1.3-0.4c-10.6-4.7-19.4-13-24.6-23.4c-2.7-5.2-4.4-10.8-5.1-16.6
	c-0.3-2.6,1.5-5,4.1-5.3c2.6-0.3,5,1.5,5.3,4.1c0.6,4.7,2,9.3,4.2,13.5C303.2,88.7,310.3,95.4,319,99.2z M386.6,60.1
	c0.1,2.7-0.1,5.5-0.5,8.2c0,0.2,0,0.3-0.1,0.5c-0.4,2.6-2.8,4.3-5.3,4c0,0,0,0,0,0c-2.6-0.4-4.4-2.8-4-5.4l0.1-0.4
	c0.3-2.2,0.4-4.4,0.4-6.7c-0.1-2.6,2-4.8,4.6-4.8C384.3,55.4,386.5,57.5,386.6,60.1z M323.5,21.9c-2.2,0.7-4.4,1.6-6.5,2.7
	c-0.9,0.5-1.9,0.6-2.8,0.5c-1.5-0.2-2.8-1.1-3.6-2.5c-1.2-2.3-0.3-5.2,2.1-6.4c2.6-1.3,5.3-2.4,8-3.3c2.5-0.8,5.1,0.6,5.9,3.1
	C327.4,18.5,326,21.1,323.5,21.9z M341.3,20.4c-1.7-0.2-3.5-0.4-5.3-0.4c-2.6,0-4.7-2.2-4.7-4.8c0-2.6,2.2-4.7,4.8-4.7
	c2.2,0,4.3,0.2,6.5,0.5c15.4,2.1,28.8,11,36.8,24.3c1.3,2.2,0.6,5.1-1.6,6.5c-1,0.6-2,0.8-3.1,0.6c-1.4-0.2-2.7-1-3.4-2.3
	C364.8,29.4,353.9,22.2,341.3,20.4z M344.4,70.1c-0.9,0.9-2.1,1.4-3.3,1.4c-1.2,0-2.4-0.5-3.3-1.4l-5.6-5.6c-1.8-1.8-1.8-4.8,0-6.7
	c1.8-1.8,4.8-1.8,6.7,0l5.6,5.6C346.2,65.2,346.2,68.2,344.4,70.1z M385.3,111c-0.9,0.9-2.1,1.4-3.3,1.4c-1.2,0-2.4-0.5-3.3-1.4
	l-30.9-30.9c-1.8-1.8-1.8-4.8,0-6.7c1.8-1.8,4.8-1.8,6.7,0l30.9,30.9C387.2,106.1,387.2,109.1,385.3,111z" />

  </g>


</svg>